# This file uses centimeters as units for non-parametric coordinates.

mtllib brute.mtl
g default
v -4.500000 0.000000 -3.200000
v -1.000000 0.000000 1.000000
v -0.200000 0.000000 1.973342
v -1.620000 0.000000 -2.000000
v -4.500000 0.129482 -3.200000
v -1.303504 0.705670 1.000000
v -0.200000 0.181645 1.973342
v -1.773520 1.820371 -1.406000
v -1.557742 -0.004362 -2.013581
v -1.210660 2.684453 -1.416555
v -0.961569 -0.004362 1.000000
v -0.192314 -0.004362 1.986923
v -0.738246 1.913433 1.000000
v -0.192314 0.178105 1.986923
v 4.500000 0.000000 -3.200000
v 1.000000 0.000000 1.000000
v 0.200000 0.000000 1.973342
v 1.620000 0.000000 -2.000000
v 4.500000 0.129482 -3.200000
v 1.303504 0.705670 1.000000
v 0.200000 0.181645 1.973342
v 1.773520 1.820371 -1.406000
v 1.557742 -0.004362 -2.013581
v 1.210660 2.684453 -1.416555
v 0.961569 -0.004362 1.000000
v 0.192314 -0.004362 1.986923
v 0.738246 1.913433 1.000000
v 0.192314 0.178105 1.986923
v -1.557742 0.035018 -7.878857
v 1.557742 0.035018 -7.878857
v 1.210660 2.700524 -4.662531
v 1.557742 0.011709 -4.684743
v -1.557742 0.011709 -4.684743
v -1.210660 2.700524 -4.662531
v 1.557742 2.640661 -7.207926
v -1.557742 2.661675 -7.207926
v 4.313633 -0.048363 -7.141706
v 4.313633 -0.045962 -7.425845
v 4.277871 0.228686 -7.139417
v 4.313633 0.222518 -7.425845
v -4.530394 -0.093234 -7.529119
v -4.530394 -0.095547 -7.255439
v -4.495948 0.171303 -7.253235
v -4.530394 0.167447 -7.529119
vt 0.290817 0.054070
vt 0.250136 0.001879
vt 0.250542 0.002597
vt 0.292849 0.054070
vt 0.325636 0.212719
vt 0.322344 0.213438
vt 0.477940 0.276179
vt 0.189115 0.054070
vt 0.157588 0.213438
vt 0.322344 0.354697
vt 0.157588 0.354697
vt 0.187083 0.054070
vt 0.154295 0.212719
vt 0.322344 0.523611
vt 0.157588 0.523611
vt 0.229389 0.002597
vt 0.229796 0.001879
vt 0.001992 0.276179
vt 0.479547 0.490643
vt 0.479547 0.505116
vt 0.011848 0.499655
vt 0.011848 0.484629
vt 0.938522 0.280501
vt 0.810727 0.305483
vt 0.810727 0.177436
vt 0.938522 0.202419
vt 0.639070 0.305483
vt 0.639070 0.177436
vt 0.504462 0.323838
vt 0.504462 0.159082
vt 0.508085 0.467687
vt 0.492937 0.469578
vt 0.487476 0.001879
vt 0.502066 0.003700
vt 0.002223 0.857848
vt 0.002223 0.705545
vt 0.009070 0.705545
vt 0.098490 0.849729
vt 0.001992 0.861140
vt 0.144185 0.879495
vt 0.436036 0.579794
vt 0.499906 0.579794
vt 0.540680 0.707589
vt 0.494984 0.707031
vt 0.408323 0.528321
vt 0.408136 0.527603
vt 0.405565 0.801903
vt 0.398718 0.579794
vt 0.398718 0.528321
vt 0.398487 0.527603
vt 0.398718 0.801903
vt 0.102061 0.549250
vt 0.198328 0.557369
vt 0.108909 0.701553
vt 0.102061 0.701553
vt 0.101831 0.545958
vt 0.244023 0.527603
vt 0.287707 0.749712
vt 0.346656 0.622475
vt 0.392352 0.621917
vt 0.351578 0.749712
vt 0.257237 0.527603
vt 0.259808 0.801903
vt 0.259995 0.801185
vt 0.250389 0.527603
vt 0.250389 0.749712
vt 0.250389 0.801185
vt 0.250159 0.801903
vt 0.210725 0.805895
vt 0.288806 0.805895
vt 0.259936 0.897664
vt 0.239595 0.897664
vt 0.259936 0.907314
vt 0.239595 0.907314
vt 0.204448 0.807246
vt 0.152256 0.766566
vt 0.152256 0.746225
vt 0.204448 0.705545
vt 0.703142 0.505142
vt 0.845335 0.473570
vt 0.846185 0.645227
vt 0.703992 0.646401
vt 0.712432 0.782231
vt 0.698320 0.782348
vt 0.712228 0.796821
vt 0.698442 0.796821
vt 0.691335 0.791359
vt 0.549142 0.759787
vt 0.549992 0.618527
vt 0.692185 0.619702
vt 0.546815 0.488596
vt 0.561466 0.488717
vt 0.546942 0.473570
vt 0.561140 0.473570
vt 0.859102 0.630773
vt 0.998008 0.630773
vt 0.996897 0.795529
vt 0.859102 0.795529
vt 0.852320 0.473570
vt 0.866106 0.473570
vt 0.869018 0.941269
vt 0.854820 0.941269
vn -0.236004 -0.953215 0.188903
vn -0.236004 -0.953215 0.188903
vn -0.236004 -0.953215 0.188903
vn -0.236004 -0.953215 0.188903
vn 0.000000 -1.000000 0.000000
vn 0.000000 -1.000000 0.000000
vn 0.000000 -1.000000 0.000000
vn -0.568478 0.261690 0.779969
vn -0.568478 0.261690 0.779969
vn -0.568478 0.261690 0.779969
vn -0.568478 0.261690 0.779969
vn -0.000000 0.952675 0.303992
vn -0.000000 0.952675 0.303992
vn -0.000000 0.952675 0.303992
vn -0.000000 0.952675 0.303992
vn -0.661299 0.622999 0.417799
vn -0.661299 0.622999 0.417799
vn -0.661299 0.622999 0.417799
vn 0.378583 0.296887 -0.876660
vn 0.378583 0.296887 -0.876660
vn 0.378583 0.296887 -0.876660
vn 0.378583 0.296887 -0.876660
vn -0.380108 0.251406 -0.890120
vn -0.380108 0.251406 -0.890120
vn -0.380108 0.251406 -0.890120
vn -0.380108 0.251406 -0.890120
vn -0.725212 -0.248004 0.642310
vn -0.725212 -0.248004 0.642310
vn -0.725212 -0.248004 0.642310
vn -0.725212 -0.248004 0.642310
vn -0.743714 -0.270305 0.611412
vn -0.743714 -0.270305 0.611412
vn -0.743714 -0.270305 0.611412
vn -0.743714 -0.270305 0.611412
vn -0.084002 -0.996321 0.017000
vn -0.084002 -0.996321 0.017000
vn -0.084002 -0.996321 0.017000
vn -0.084002 -0.996321 0.017000
vn -0.825880 0.451389 0.337892
vn -0.825880 0.451389 0.337892
vn -0.825880 0.451389 0.337892
vn -0.825880 0.451389 0.337892
vn -0.870309 0.000000 0.492505
vn -0.870309 0.000000 0.492505
vn -0.870309 0.000000 0.492505
vn -0.870309 0.000000 0.492505
vn 0.236004 -0.953215 0.188903
vn 0.236004 -0.953215 0.188903
vn 0.236004 -0.953215 0.188903
vn 0.236004 -0.953215 0.188903
vn 0.000000 -1.000000 0.000000
vn 0.000000 -1.000000 0.000000
vn 0.000000 -1.000000 0.000000
vn 0.568478 0.261690 0.779969
vn 0.568478 0.261690 0.779969
vn 0.568478 0.261690 0.779969
vn 0.568478 0.261690 0.779969
vn 0.661299 0.622999 0.417799
vn 0.661299 0.622999 0.417799
vn 0.661299 0.622999 0.417799
vn -0.378583 0.296887 -0.876660
vn -0.378583 0.296887 -0.876660
vn -0.378583 0.296887 -0.876660
vn -0.378583 0.296887 -0.876660
vn 0.380108 0.251406 -0.890120
vn 0.380108 0.251406 -0.890120
vn 0.380108 0.251406 -0.890120
vn 0.380108 0.251406 -0.890120
vn 0.725212 -0.248004 0.642310
vn 0.725212 -0.248004 0.642310
vn 0.725212 -0.248004 0.642310
vn 0.725212 -0.248004 0.642310
vn 0.743714 -0.270305 0.611412
vn 0.743714 -0.270305 0.611412
vn 0.743714 -0.270305 0.611412
vn 0.743714 -0.270305 0.611412
vn 0.084002 -0.996321 0.017000
vn 0.084002 -0.996321 0.017000
vn 0.084002 -0.996321 0.017000
vn 0.084002 -0.996321 0.017000
vn 0.825880 0.451389 0.337892
vn 0.825880 0.451389 0.337892
vn 0.825880 0.451389 0.337892
vn 0.825880 0.451389 0.337892
vn 0.870309 0.000000 0.492505
vn 0.870309 0.000000 0.492505
vn 0.870309 0.000000 0.492505
vn 0.870309 0.000000 0.492505
vn -0.000000 0.494372 0.869251
vn -0.000000 0.494372 0.869251
vn -0.000000 0.494372 0.869251
vn -0.000000 0.494372 0.869251
vn -0.000000 0.000000 1.000000
vn -0.000000 0.000000 1.000000
vn -0.000000 0.000000 1.000000
vn -0.000000 0.000000 1.000000
vn 0.000000 -1.000000 0.000000
vn 0.000000 -1.000000 0.000000
vn 0.000000 -1.000000 0.000000
vn 0.000000 -1.000000 0.000000
vn 0.000000 -1.000000 0.000000
vn 0.000000 -1.000000 0.000000
vn 0.000000 -1.000000 0.000000
vn 0.000000 -1.000000 0.000000
vn 0.000000 -0.999944 -0.010600
vn 0.000000 -0.999944 -0.010600
vn 0.000000 -0.999944 -0.010600
vn 0.000000 -0.999944 -0.010600
vn -0.000000 0.999988 0.005000
vn -0.000000 0.999988 0.005000
vn -0.000000 0.999988 0.005000
vn -0.000000 0.999988 0.005000
vn 0.000000 -0.999982 -0.006000
vn 0.000000 -0.999982 -0.006000
vn 0.000000 -0.999982 -0.006000
vn 0.000000 -0.999982 -0.006000
vn -0.991787 0.127898 0.000700
vn -0.991787 0.127898 0.000700
vn -0.991787 0.127898 0.000700
vn -0.991787 0.127898 0.000700
vn 0.991787 0.127898 0.000700
vn 0.991787 0.127898 0.000700
vn 0.991787 0.127898 0.000700
vn 0.991787 0.127898 0.000700
vn 0.664308 0.079601 0.743209
vn 0.664308 0.079601 0.743209
vn 0.664308 0.079601 0.743209
vn 0.664308 0.079601 0.743209
vn -0.031199 -0.999459 -0.010400
vn -0.031199 -0.999459 -0.010400
vn -0.031199 -0.999459 -0.010400
vn -0.031199 -0.999459 -0.010400
vn -0.653701 0.078200 0.752701
vn -0.653701 0.078200 0.752701
vn -0.653701 0.078200 0.752701
vn -0.653701 0.078200 0.752701
vn 0.045201 -0.998924 -0.010400
vn 0.045201 -0.998924 -0.010400
vn 0.045201 -0.998924 -0.010400
vn 0.045201 -0.998924 -0.010400
vn 0.665628 0.741731 0.082303
vn 0.665628 0.741731 0.082303
vn 0.665628 0.741731 0.082303
vn 0.665628 0.741731 0.082303
vn -0.650578 0.754475 0.086697
vn -0.650578 0.754475 0.086697
vn -0.650578 0.754475 0.086697
vn -0.650578 0.754475 0.086697
vn 0.003800 0.999744 -0.022301
vn 0.003800 0.999744 -0.022301
vn 0.003800 0.999744 -0.022301
vn 0.003800 0.999744 -0.022301
vn 0.000000 0.000000 -1.000000
vn 0.000000 0.000000 -1.000000
vn 0.000000 0.000000 -1.000000
vn 0.000000 0.000000 -1.000000
vn 0.995958 0.064997 0.061997
vn 0.995958 0.064997 0.061997
vn 0.995958 0.064997 0.061997
vn 0.995958 0.064997 0.061997
vn -0.195289 0.000000 -0.980746
vn -0.195289 0.000000 -0.980746
vn -0.195289 0.000000 -0.980746
vn -0.195289 0.000000 -0.980746
vn -0.995958 0.064797 0.062197
vn -0.995958 0.064797 0.062197
vn -0.995958 0.064797 0.062197
vn -0.995958 0.064797 0.062197
vn 0.214198 0.000000 -0.976790
vn 0.214198 0.000000 -0.976790
vn 0.214198 0.000000 -0.976790
vn 0.214198 0.000000 -0.976790
s off
g NaveInimiga3:Mesh
usemtl NaveInimiga3:Material1
f 11/1/1 12/2/2 3/3/3 2/4/4
f 1/7/5 4/5/6 2/4/7
f 13/42/8 6/41/9 7/45/10 14/46/11
f 27/23/12 24/24/13 10/25/14 13/26/15
f 5/47/16 6/41/17 8/44/18
f 4/35/19 1/36/20 5/37/21 8/38/22
f 9/39/23 4/35/24 8/38/25 10/40/26
f 2/48/27 3/49/28 7/45/29 6/41/30
f 1/51/31 2/48/32 6/41/33 5/47/34
f 2/4/35 4/5/36 9/6/37 11/1/38
f 6/41/39 13/42/40 10/43/41 8/44/42
f 3/49/43 12/50/44 14/46/45 7/45/46
f 25/8/47 16/12/48 17/16/49 26/17/50
f 15/18/51 16/12/52 18/13/53
f 27/61/54 28/63/55 21/64/56 20/58/57
f 19/62/58 22/59/59 20/58/60
f 18/52/61 22/53/62 19/54/63 15/55/64
f 23/56/65 24/57/66 22/53/67 18/52/68
f 16/66/69 20/58/70 21/64/71 17/67/72
f 15/65/73 19/62/74 20/58/75 16/66/76
f 16/12/77 25/8/78 23/9/79 18/13/80
f 20/58/81 22/59/82 24/60/83 27/61/84
f 17/67/85 21/64/86 28/63/87 26/68/88
f 27/69/89 13/70/90 14/71/91 28/72/92
f 14/71/93 12/73/94 26/74/95 28/72/96
f 25/75/97 26/76/98 12/77/99 11/78/100
f 25/8/101 11/1/102 9/6/103 23/9/104
f 32/11/105 33/10/106 29/14/107 30/15/108
f 10/25/109 24/24/110 31/27/111 34/28/112
f 23/9/113 9/6/114 33/10/115 32/11/116
f 9/79/117 10/80/118 34/81/119 33/82/120
f 24/87/121 23/88/122 32/89/123 31/90/124
f 31/90/125 32/89/126 37/91/127 39/92/128
f 32/11/129 30/15/130 38/21/131 37/22/132
f 33/82/133 34/81/134 43/83/135 42/84/136
f 29/14/137 33/10/138 42/19/139 41/20/140
f 35/29/141 31/27/142 39/31/143 40/32/144
f 34/28/145 36/30/146 44/33/147 43/34/148
f 34/28/149 31/27/150 35/29/151 36/30/152
f 29/95/153 36/96/154 35/97/155 30/98/156
f 38/93/157 40/94/158 39/92/159 37/91/160
f 30/98/161 35/97/162 40/101/163 38/102/164
f 44/85/165 41/86/166 42/84/167 43/83/168
f 36/96/169 29/95/170 41/99/171 44/100/172
