# Blender v2.74 (sub 0) OBJ File: 'NaveEspacialMAD.blend'
# www.blender.org
mtllib NaveEspacialMAD.mtl
o Plane
v 4.500000 0.000000 3.200000
v 1.000000 0.000000 -1.000000
v 0.200000 0.000000 -4.000000
v 1.620000 0.000000 2.000000
v 4.500000 0.129482 3.200000
v 1.303504 0.705670 -1.000000
v 0.200000 0.181645 -4.000000
v 1.773520 1.820371 1.406000
v 1.557742 -0.004362 2.013581
v 1.210660 2.684453 1.416555
v 0.961569 -0.004362 -1.000000
v 0.192314 -0.004362 -4.013581
v 0.738246 1.913433 -1.000000
v 0.192314 0.178105 -4.013581
v -4.500000 0.000000 3.200000
v -1.000000 0.000000 -1.000000
v -0.200000 0.000000 -4.000000
v -1.620000 0.000000 2.000000
v -4.500000 0.129482 3.200000
v -1.303504 0.705670 -1.000000
v -0.200000 0.181645 -4.000000
v -1.773520 1.820371 1.406000
v -1.557742 -0.004362 2.013581
v -1.210660 2.684453 1.416555
v -0.961569 -0.004362 -1.000000
v -0.192314 -0.004362 -4.013581
v -0.738246 1.913433 -1.000000
v -0.192314 0.178105 -4.013581
vt 0.351472 0.332839
vt 0.277061 0.470146
vt 0.277319 0.468858
vt 0.350335 0.330049
vt 0.222295 0.999892
vt 0.209068 0.834617
vt 0.322435 0.833501
vt 0.310403 0.999025
vt 0.195058 0.793244
vt 0.137406 0.614168
vt 0.193527 0.437919
vt 0.290036 0.257805
vt 0.330303 0.295517
vt 0.271861 0.460205
vt 0.271402 0.461093
vt 0.236839 0.259107
vt 0.217178 0.100761
vt 0.309779 0.100317
vt 0.522798 0.112758
vt 0.357624 0.106604
vt 0.426901 0.003934
vt 0.525365 0.106015
vt 0.425577 0.000108
vt 0.222850 0.450203
vt 0.200158 0.793244
vt 0.135166 0.612278
vt 0.191808 0.435850
vt 0.176021 0.335238
vt 0.177129 0.332416
vt 0.251570 0.469161
vt 0.251841 0.470442
vt 0.075144 0.793244
vt 0.076676 0.437923
vt 0.132796 0.614171
vt 0.257406 0.461231
vt 0.256938 0.460356
vt 0.196803 0.297324
vt 0.002702 0.113884
vt 0.169019 0.107173
vt 0.099199 0.003963
vt 0.000108 0.107097
vt 0.100529 0.000108
vt 0.070045 0.793244
vt 0.047353 0.450207
vt 0.078345 0.435690
vt 0.135036 0.612280
vt 0.271442 0.472051
vt 0.257446 0.472188
vt 0.230108 0.653434
vt 0.300087 0.652745
vn 0.200500 -0.978300 -0.052300
vn 0.000000 0.216800 0.976200
vn 0.000000 -1.000000 0.000000
vn 0.837700 0.394300 -0.377900
vn 0.000000 0.952700 -0.304000
vn 0.661300 0.623000 -0.417800
vn -0.378600 0.296900 0.876700
vn 0.380100 0.251400 0.890100
vn 0.913000 -0.312300 -0.262400
vn 0.743700 -0.270300 -0.611400
vn 0.084000 -0.996300 -0.017000
vn 0.825900 0.451400 -0.337900
vn 0.870300 0.000000 -0.492500
vn -0.200500 -0.978300 -0.052300
vn -0.837700 0.394300 -0.377900
vn -0.661300 0.623000 -0.417800
vn 0.378600 0.296900 0.876700
vn -0.380100 0.251400 0.890100
vn -0.913000 -0.312300 -0.262400
vn -0.743700 -0.270300 -0.611400
vn -0.084000 -0.996300 -0.017000
vn -0.825900 0.451400 -0.337900
vn -0.870300 0.000000 -0.492500
vn 0.000000 0.866600 -0.499000
vn 0.000000 0.000000 -1.000000
usemtl Material1
s off
f 11/1/1 12/2/1 3/3/1 2/4/1
f 24/5/2 23/6/2 9/7/2 10/8/2
f 1/9/3 4/10/3 2/11/3
f 13/12/4 6/13/4 7/14/4 14/15/4
f 27/16/5 24/17/5 10/18/5 13/12/5
f 5/19/6 6/13/6 8/20/6
f 4/21/7 1/22/7 5/19/7 8/20/7
f 9/23/8 4/21/8 8/20/8 10/18/8
f 2/4/9 3/3/9 7/14/9 6/13/9
f 1/9/10 2/11/10 6/24/10 5/25/10
f 2/11/11 4/10/11 9/26/11 11/27/11
f 6/13/12 13/12/12 10/18/12 8/20/12
f 3/3/13 12/2/13 14/15/13 7/14/13
f 25/28/14 16/29/14 17/30/14 26/31/14
f 15/32/3 16/33/3 18/34/3
f 27/16/15 28/35/15 21/36/15 20/37/15
f 19/38/16 22/39/16 20/37/16
f 18/40/17 22/39/17 19/38/17 15/41/17
f 23/42/18 24/17/18 22/39/18 18/40/18
f 16/29/19 20/37/19 21/36/19 17/30/19
f 15/32/20 19/43/20 20/44/20 16/33/20
f 16/33/21 25/45/21 23/46/21 18/34/21
f 20/37/22 22/39/22 24/17/22 27/16/22
f 17/30/23 21/36/23 28/35/23 26/31/23
f 27/16/24 13/12/24 14/15/24 28/35/24
f 14/15/25 12/47/25 26/48/25 28/35/25
f 25/49/3 26/48/3 12/47/3 11/50/3
f 25/49/3 11/50/3 9/7/3 23/6/3
