# Blender v2.74 (sub 0) OBJ File: 'NaveInimiga3.blend'
# www.blender.org
mtllib NaveInimiga3.mtl
o Plane
v 4.500000 0.000000 3.200000
v 1.000000 0.000000 -1.000000
v 0.200000 0.000000 -1.973342
v 1.620000 0.000000 2.000000
v 4.500000 0.129482 3.200000
v 1.303504 0.705670 -1.000000
v 0.200000 0.181645 -1.973342
v 1.773520 1.820371 1.406000
v 1.557742 -0.004362 2.013581
v 1.210660 2.684453 1.416555
v 0.961569 -0.004362 -1.000000
v 0.192314 -0.004362 -1.986923
v 0.738246 1.913433 -1.000000
v 0.192314 0.178105 -1.986923
v -4.500000 0.000000 3.200000
v -1.000000 0.000000 -1.000000
v -0.200000 0.000000 -1.973342
v -1.620000 0.000000 2.000000
v -4.500000 0.129482 3.200000
v -1.303504 0.705670 -1.000000
v -0.200000 0.181645 -1.973342
v -1.773520 1.820371 1.406000
v -1.557742 -0.004362 2.013581
v -1.210660 2.684453 1.416555
v -0.961569 -0.004362 -1.000000
v -0.192314 -0.004362 -1.986923
v -0.738246 1.913433 -1.000000
v -0.192314 0.178105 -1.986923
v 1.557742 0.035018 6.877180
v -1.557742 0.035018 6.877180
v -1.210660 2.700524 4.662531
v -1.557742 0.011709 4.684743
v 1.557742 0.011709 4.684743
v 1.210660 2.700524 4.662531
v -1.557742 2.640661 6.877180
v 1.557742 2.661675 6.877180
v -4.313633 -0.048363 7.141706
v -4.313633 -0.045962 7.425845
v -4.277871 0.228686 7.139417
v -4.313633 0.222518 7.425845
v 4.530394 -0.093234 7.529119
v 4.530394 -0.095547 7.255439
v 4.495948 0.171303 7.253235
v 4.530394 0.167447 7.529119
vt 0.351472 0.332839
vt 0.277061 0.470146
vt 0.277319 0.468858
vt 0.350335 0.330049
vt 0.195058 0.793244
vt 0.137406 0.614168
vt 0.193527 0.437919
vt 0.290036 0.257805
vt 0.330303 0.295517
vt 0.271861 0.460205
vt 0.271402 0.461093
vt 0.236839 0.259107
vt 0.217178 0.100761
vt 0.309779 0.100317
vt 0.522798 0.112758
vt 0.357624 0.106604
vt 0.426901 0.003934
vt 0.525365 0.106015
vt 0.425577 0.000108
vt 0.222850 0.450203
vt 0.200158 0.793244
vt 0.135166 0.612278
vt 0.191808 0.435850
vt 0.176021 0.335238
vt 0.177129 0.332416
vt 0.251570 0.469161
vt 0.251841 0.470442
vt 0.075144 0.793244
vt 0.076676 0.437923
vt 0.132796 0.614171
vt 0.257406 0.461231
vt 0.256938 0.460356
vt 0.196803 0.297324
vt 0.002702 0.113884
vt 0.169019 0.107173
vt 0.099199 0.003963
vt 0.000108 0.107097
vt 0.100529 0.000108
vt 0.070045 0.793244
vt 0.047353 0.450207
vt 0.078345 0.435690
vt 0.135036 0.612280
vt 0.271442 0.472051
vt 0.257446 0.472188
vt 0.230108 0.653434
vt 0.300087 0.652745
vt 0.322435 0.833501
vt 0.209068 0.834617
vt 0.000000 0.000000
vn 0.236000 -0.953200 -0.188900
vn 0.000000 -1.000000 0.000000
vn 0.568500 0.261700 -0.780000
vn 0.000000 0.952700 -0.304000
vn 0.661300 0.623000 -0.417800
vn -0.378600 0.296900 0.876700
vn 0.380100 0.251400 0.890100
vn 0.725200 -0.248000 -0.642300
vn 0.743700 -0.270300 -0.611400
vn 0.084000 -0.996300 -0.017000
vn 0.825900 0.451400 -0.337900
vn 0.870300 0.000000 -0.492500
vn -0.236000 -0.953200 -0.188900
vn -0.568500 0.261700 -0.780000
vn -0.661300 0.623000 -0.417800
vn 0.378600 0.296900 0.876700
vn -0.380100 0.251400 0.890100
vn -0.725200 -0.248000 -0.642300
vn -0.743700 -0.270300 -0.611400
vn -0.084000 -0.996300 -0.017000
vn -0.825900 0.451400 -0.337900
vn -0.870300 0.000000 -0.492500
vn 0.000000 0.494400 -0.869300
vn 0.000000 0.000000 -1.000000
vn 0.000000 -0.999900 0.010600
vn 0.000000 1.000000 -0.005000
vn 0.000000 -1.000000 0.006000
vn 0.991800 0.127900 -0.000700
vn -0.991800 0.127900 -0.000700
vn -0.664300 0.079600 -0.743200
vn 0.031200 -0.999500 0.010400
vn 0.653700 0.078200 -0.752700
vn -0.045200 -0.998900 0.010400
vn -0.665600 0.741700 -0.082300
vn 0.650600 0.754500 -0.086700
vn -0.003800 0.999700 0.022300
vn 0.000000 0.000000 1.000000
vn -0.996000 0.065000 -0.062000
vn 0.195300 0.000000 0.980800
vn 0.996000 0.064800 -0.062200
vn -0.214200 0.000000 0.976800
usemtl Material1
s off
f 11/1/1 12/2/1 3/3/1 2/4/1
f 1/5/2 4/6/2 2/7/2
f 13/8/3 6/9/3 7/10/3 14/11/3
f 27/12/4 24/13/4 10/14/4 13/8/4
f 5/15/5 6/9/5 8/16/5
f 4/17/6 1/18/6 5/15/6 8/16/6
f 9/19/7 4/17/7 8/16/7 10/14/7
f 2/4/8 3/3/8 7/10/8 6/9/8
f 1/5/9 2/7/9 6/20/9 5/21/9
f 2/7/10 4/6/10 9/22/10 11/23/10
f 6/9/11 13/8/11 10/14/11 8/16/11
f 3/3/12 12/2/12 14/11/12 7/10/12
f 25/24/13 16/25/13 17/26/13 26/27/13
f 15/28/2 16/29/2 18/30/2
f 27/12/14 28/31/14 21/32/14 20/33/14
f 19/34/15 22/35/15 20/33/15
f 18/36/16 22/35/16 19/34/16 15/37/16
f 23/38/17 24/13/17 22/35/17 18/36/17
f 16/25/18 20/33/18 21/32/18 17/26/18
f 15/28/19 19/39/19 20/40/19 16/29/19
f 16/29/20 25/41/20 23/42/20 18/30/20
f 20/33/21 22/35/21 24/13/21 27/12/21
f 17/26/22 21/32/22 28/31/22 26/27/22
f 27/12/23 13/8/23 14/11/23 28/31/23
f 14/11/24 12/43/24 26/44/24 28/31/24
f 25/45/2 26/44/2 12/43/2 11/46/2
f 25/45/2 11/46/2 9/47/2 23/48/2
f 32/48/25 33/47/25 29/47/25 30/48/25
f 10/14/26 24/13/26 31/13/26 34/14/26
f 23/48/27 9/47/27 33/47/27 32/48/27
f 9/19/28 10/14/28 34/14/28 33/19/28
f 24/13/29 23/38/29 32/38/29 31/13/29
f 31/13/30 32/38/30 37/38/30 39/13/30
f 32/48/31 30/48/31 38/48/31 37/48/31
f 33/19/32 34/14/32 43/14/32 42/19/32
f 29/47/33 33/47/33 42/47/33 41/47/33
usemtl Material1_NONE
f 35/49/34 31/13/34 39/13/34 40/49/34
f 34/14/35 36/49/35 44/49/35 43/14/35
f 34/14/36 31/13/36 35/49/36 36/49/36
f 29/49/37 36/49/37 35/48/37 30/47/37
f 38/48/38 40/49/38 39/49/38 37/38/38
f 30/47/39 35/48/39 40/48/39 38/47/39
f 44/49/40 41/49/40 42/47/40 43/14/40
f 36/49/41 29/49/41 41/49/41 44/49/41
